<svg id="visual" viewBox="0 0 900 450" width="900" height="450" xmlns="http://www.w3.org/2000/svg"
    xmlns:xlink="http://www.w3.org/1999/xlink" version="1.1">
    <rect x="0" y="0" width="900" height="450" fill="#272727"></rect>
    <!-- specify the d value if the browser doesn't support <animate> for some reason -->
    <path
        d="M0 182L21.5 183.2C43 184.3 86 186.7 128.8 188C171.7 189.3 214.3 189.7 257.2 195.3C300 201 343 212 385.8 210C428.7 208 471.3 193 514.2 189.8C557 186.7 600 195.3 642.8 204C685.7 212.7 728.3 221.3 771.2 226.2C814 231 857 232 878.5 232.5L900 233L900 451L878.5 451C857 451 814 451 771.2 451C728.3 451 685.7 451 642.8 451C600 451 557 451 514.2 451C471.3 451 428.7 451 385.8 451C343 451 300 451 257.2 451C214.3 451 171.7 451 128.8 451C86 451 43 451 21.5 451L0 451Z"
        fill="#f4d48e">
    
        <animate
            repeatCount="indefinite"
            attributeName="d"
            dur="20s"
            values="
                M0 182L21.5 183.2C43 184.3 86 186.7 128.8 188C171.7 189.3 214.3 189.7 257.2 195.3C300 201 343 212 385.8 210C428.7 208 471.3 193 514.2 189.8C557 186.7 600 195.3 642.8 204C685.7 212.7 728.3 221.3 771.2 226.2C814 231 857 232 878.5 232.5L900 233L900 451L878.5 451C857 451 814 451 771.2 451C728.3 451 685.7 451 642.8 451C600 451 557 451 514.2 451C471.3 451 428.7 451 385.8 451C343 451 300 451 257.2 451C214.3 451 171.7 451 128.8 451C86 451 43 451 21.5 451L0 451Z
                ;
                M0 186L21.5 191.7C43 197.3 86 208.7 128.8 211.7C171.7 214.7 214.3 209.3 257.2 205.7C300 202 343 200 385.8 196.7C428.7 193.3 471.3 188.7 514.2 184.3C557 180 600 176 642.8 181C685.7 186 728.3 200 771.2 201.7C814 203.3 857 192.7 878.5 187.3L900 182L900 451L878.5 451C857 451 814 451 771.2 451C728.3 451 685.7 451 642.8 451C600 451 557 451 514.2 451C471.3 451 428.7 451 385.8 451C343 451 300 451 257.2 451C214.3 451 171.7 451 128.8 451C86 451 43 451 21.5 451L0 451Z
                ;
                M0 215L21.5 214.3C43 213.7 86 212.3 128.8 208C171.7 203.7 214.3 196.3 257.2 192.8C300 189.3 343 189.7 385.8 186.7C428.7 183.7 471.3 177.3 514.2 183C557 188.7 600 206.3 642.8 213.8C685.7 221.3 728.3 218.7 771.2 214C814 209.3 857 202.7 878.5 199.3L900 196L900 451L878.5 451C857 451 814 451 771.2 451C728.3 451 685.7 451 642.8 451C600 451 557 451 514.2 451C471.3 451 428.7 451 385.8 451C343 451 300 451 257.2 451C214.3 451 171.7 451 128.8 451C86 451 43 451 21.5 451L0 451Z
                ;
                M0 182L21.5 183.2C43 184.3 86 186.7 128.8 188C171.7 189.3 214.3 189.7 257.2 195.3C300 201 343 212 385.8 210C428.7 208 471.3 193 514.2 189.8C557 186.7 600 195.3 642.8 204C685.7 212.7 728.3 221.3 771.2 226.2C814 231 857 232 878.5 232.5L900 233L900 451L878.5 451C857 451 814 451 771.2 451C728.3 451 685.7 451 642.8 451C600 451 557 451 514.2 451C471.3 451 428.7 451 385.8 451C343 451 300 451 257.2 451C214.3 451 171.7 451 128.8 451C86 451 43 451 21.5 451L0 451Z
            "
        />
    </path>
    <path
        d="M0 261L21.5 257C43 253 86 245 128.8 242.2C171.7 239.3 214.3 241.7 257.2 239.2C300 236.7 343 229.3 385.8 231.8C428.7 234.3 471.3 246.7 514.2 249C557 251.3 600 243.7 642.8 242.7C685.7 241.7 728.3 247.3 771.2 252.5C814 257.7 857 262.3 878.5 264.7L900 267L900 451L878.5 451C857 451 814 451 771.2 451C728.3 451 685.7 451 642.8 451C600 451 557 451 514.2 451C471.3 451 428.7 451 385.8 451C343 451 300 451 257.2 451C214.3 451 171.7 451 128.8 451C86 451 43 451 21.5 451L0 451Z"
        fill="#f5ae7d">
    
        <animate
            repeatCount="indefinite"
            attributeName="d"
            dur="17s"
            values="
                M0 261L21.5 257C43 253 86 245 128.8 242.2C171.7 239.3 214.3 241.7 257.2 239.2C300 236.7 343 229.3 385.8 231.8C428.7 234.3 471.3 246.7 514.2 249C557 251.3 600 243.7 642.8 242.7C685.7 241.7 728.3 247.3 771.2 252.5C814 257.7 857 262.3 878.5 264.7L900 267L900 451L878.5 451C857 451 814 451 771.2 451C728.3 451 685.7 451 642.8 451C600 451 557 451 514.2 451C471.3 451 428.7 451 385.8 451C343 451 300 451 257.2 451C214.3 451 171.7 451 128.8 451C86 451 43 451 21.5 451L0 451Z
                ;
                M0 212L21.5 217.3C43 222.7 86 233.3 128.8 243.5C171.7 253.7 214.3 263.3 257.2 257.8C300 252.3 343 231.7 385.8 229.7C428.7 227.7 471.3 244.3 514.2 249.3C557 254.3 600 247.7 642.8 241.3C685.7 235 728.3 229 771.2 225.7C814 222.3 857 221.7 878.5 221.3L900 221L900 451L878.5 451C857 451 814 451 771.2 451C728.3 451 685.7 451 642.8 451C600 451 557 451 514.2 451C471.3 451 428.7 451 385.8 451C343 451 300 451 257.2 451C214.3 451 171.7 451 128.8 451C86 451 43 451 21.5 451L0 451Z
                ;
                M0 226L21.5 231.7C43 237.3 86 248.7 128.8 246.2C171.7 243.7 214.3 227.3 257.2 222.8C300 218.3 343 225.7 385.8 235.3C428.7 245 471.3 257 514.2 253.7C557 250.3 600 231.7 642.8 231.8C685.7 232 728.3 251 771.2 253.3C814 255.7 857 241.3 878.5 234.2L900 227L900 451L878.5 451C857 451 814 451 771.2 451C728.3 451 685.7 451 642.8 451C600 451 557 451 514.2 451C471.3 451 428.7 451 385.8 451C343 451 300 451 257.2 451C214.3 451 171.7 451 128.8 451C86 451 43 451 21.5 451L0 451Z
                ;
                M0 261L21.5 257C43 253 86 245 128.8 242.2C171.7 239.3 214.3 241.7 257.2 239.2C300 236.7 343 229.3 385.8 231.8C428.7 234.3 471.3 246.7 514.2 249C557 251.3 600 243.7 642.8 242.7C685.7 241.7 728.3 247.3 771.2 252.5C814 257.7 857 262.3 878.5 264.7L900 267L900 451L878.5 451C857 451 814 451 771.2 451C728.3 451 685.7 451 642.8 451C600 451 557 451 514.2 451C471.3 451 428.7 451 385.8 451C343 451 300 451 257.2 451C214.3 451 171.7 451 128.8 451C86 451 43 451 21.5 451L0 451Z
            "
        />
    </path>
    <path
        d="M0 268L21.5 269.2C43 270.3 86 272.7 128.8 275.3C171.7 278 214.3 281 257.2 285.8C300 290.7 343 297.3 385.8 296.8C428.7 296.3 471.3 288.7 514.2 280.3C557 272 600 263 642.8 266C685.7 269 728.3 284 771.2 285.3C814 286.7 857 274.3 878.5 268.2L900 262L900 451L878.5 451C857 451 814 451 771.2 451C728.3 451 685.7 451 642.8 451C600 451 557 451 514.2 451C471.3 451 428.7 451 385.8 451C343 451 300 451 257.2 451C214.3 451 171.7 451 128.8 451C86 451 43 451 21.5 451L0 451Z"
        fill="#ec897c">
    
        <animate
            repeatCount="indefinite"
            attributeName="d"
            dur="22s"
            values="
                M0 268L21.5 269.2C43 270.3 86 272.7 128.8 275.3C171.7 278 214.3 281 257.2 285.8C300 290.7 343 297.3 385.8 296.8C428.7 296.3 471.3 288.7 514.2 280.3C557 272 600 263 642.8 266C685.7 269 728.3 284 771.2 285.3C814 286.7 857 274.3 878.5 268.2L900 262L900 451L878.5 451C857 451 814 451 771.2 451C728.3 451 685.7 451 642.8 451C600 451 557 451 514.2 451C471.3 451 428.7 451 385.8 451C343 451 300 451 257.2 451C214.3 451 171.7 451 128.8 451C86 451 43 451 21.5 451L0 451Z
                ;
                M0 300L21.5 293.3C43 286.7 86 273.3 128.8 270C171.7 266.7 214.3 273.3 257.2 279C300 284.7 343 289.3 385.8 291.2C428.7 293 471.3 292 514.2 290.5C557 289 600 287 642.8 289.7C685.7 292.3 728.3 299.7 771.2 297.8C814 296 857 285 878.5 279.5L900 274L900 451L878.5 451C857 451 814 451 771.2 451C728.3 451 685.7 451 642.8 451C600 451 557 451 514.2 451C471.3 451 428.7 451 385.8 451C343 451 300 451 257.2 451C214.3 451 171.7 451 128.8 451C86 451 43 451 21.5 451L0 451Z
                ;
                M0 283L21.5 285.5C43 288 86 293 128.8 289.3C171.7 285.7 214.3 273.3 257.2 266.3C300 259.3 343 257.7 385.8 261.8C428.7 266 471.3 276 514.2 281.3C557 286.7 600 287.3 642.8 284.2C685.7 281 728.3 274 771.2 270.8C814 267.7 857 268.3 878.5 268.7L900 269L900 451L878.5 451C857 451 814 451 771.2 451C728.3 451 685.7 451 642.8 451C600 451 557 451 514.2 451C471.3 451 428.7 451 385.8 451C343 451 300 451 257.2 451C214.3 451 171.7 451 128.8 451C86 451 43 451 21.5 451L0 451Z
                ;
                M0 268L21.5 269.2C43 270.3 86 272.7 128.8 275.3C171.7 278 214.3 281 257.2 285.8C300 290.7 343 297.3 385.8 296.8C428.7 296.3 471.3 288.7 514.2 280.3C557 272 600 263 642.8 266C685.7 269 728.3 284 771.2 285.3C814 286.7 857 274.3 878.5 268.2L900 262L900 451L878.5 451C857 451 814 451 771.2 451C728.3 451 685.7 451 642.8 451C600 451 557 451 514.2 451C471.3 451 428.7 451 385.8 451C343 451 300 451 257.2 451C214.3 451 171.7 451 128.8 451C86 451 43 451 21.5 451L0 451Z
            "
        />
    </path>
    <path
        d="M0 298L21.5 303C43 308 86 318 128.8 324.3C171.7 330.7 214.3 333.3 257.2 331.3C300 329.3 343 322.7 385.8 324.3C428.7 326 471.3 336 514.2 337.8C557 339.7 600 333.3 642.8 332.7C685.7 332 728.3 337 771.2 333.7C814 330.3 857 318.7 878.5 312.8L900 307L900 451L878.5 451C857 451 814 451 771.2 451C728.3 451 685.7 451 642.8 451C600 451 557 451 514.2 451C471.3 451 428.7 451 385.8 451C343 451 300 451 257.2 451C214.3 451 171.7 451 128.8 451C86 451 43 451 21.5 451L0 451Z"
        fill="#d56985">
    
        <animate
            repeatCount="indefinite"
            attributeName="d"
            dur="14s"
            values="
                M0 298L21.5 303C43 308 86 318 128.8 324.3C171.7 330.7 214.3 333.3 257.2 331.3C300 329.3 343 322.7 385.8 324.3C428.7 326 471.3 336 514.2 337.8C557 339.7 600 333.3 642.8 332.7C685.7 332 728.3 337 771.2 333.7C814 330.3 857 318.7 878.5 312.8L900 307L900 451L878.5 451C857 451 814 451 771.2 451C728.3 451 685.7 451 642.8 451C600 451 557 451 514.2 451C471.3 451 428.7 451 385.8 451C343 451 300 451 257.2 451C214.3 451 171.7 451 128.8 451C86 451 43 451 21.5 451L0 451Z
                ;
                M0 325L21.5 321.8C43 318.7 86 312.3 128.8 313.3C171.7 314.3 214.3 322.7 257.2 324C300 325.3 343 319.7 385.8 320.3C428.7 321 471.3 328 514.2 327.5C557 327 600 319 642.8 313.7C685.7 308.3 728.3 305.7 771.2 304.7C814 303.7 857 304.3 878.5 304.7L900 305L900 451L878.5 451C857 451 814 451 771.2 451C728.3 451 685.7 451 642.8 451C600 451 557 451 514.2 451C471.3 451 428.7 451 385.8 451C343 451 300 451 257.2 451C214.3 451 171.7 451 128.8 451C86 451 43 451 21.5 451L0 451Z
                ;
                M0 303L21.5 308.2C43 313.3 86 323.7 128.8 323.2C171.7 322.7 214.3 311.3 257.2 309.8C300 308.3 343 316.7 385.8 320C428.7 323.3 471.3 321.7 514.2 322C557 322.3 600 324.7 642.8 327.2C685.7 329.7 728.3 332.3 771.2 335.2C814 338 857 341 878.5 342.5L900 344L900 451L878.5 451C857 451 814 451 771.2 451C728.3 451 685.7 451 642.8 451C600 451 557 451 514.2 451C471.3 451 428.7 451 385.8 451C343 451 300 451 257.2 451C214.3 451 171.7 451 128.8 451C86 451 43 451 21.5 451L0 451Z
                ;
                M0 298L21.5 303C43 308 86 318 128.8 324.3C171.7 330.7 214.3 333.3 257.2 331.3C300 329.3 343 322.7 385.8 324.3C428.7 326 471.3 336 514.2 337.8C557 339.7 600 333.3 642.8 332.7C685.7 332 728.3 337 771.2 333.7C814 330.3 857 318.7 878.5 312.8L900 307L900 451L878.5 451C857 451 814 451 771.2 451C728.3 451 685.7 451 642.8 451C600 451 557 451 514.2 451C471.3 451 428.7 451 385.8 451C343 451 300 451 257.2 451C214.3 451 171.7 451 128.8 451C86 451 43 451 21.5 451L0 451Z
            "
        />
    </path>
    <path
        d="M0 383L21.5 382C43 381 86 379 128.8 379.7C171.7 380.3 214.3 383.7 257.2 377.5C300 371.3 343 355.7 385.8 353.3C428.7 351 471.3 362 514.2 366.5C557 371 600 369 642.8 371.5C685.7 374 728.3 381 771.2 384.2C814 387.3 857 386.7 878.5 386.3L900 386L900 451L878.5 451C857 451 814 451 771.2 451C728.3 451 685.7 451 642.8 451C600 451 557 451 514.2 451C471.3 451 428.7 451 385.8 451C343 451 300 451 257.2 451C214.3 451 171.7 451 128.8 451C86 451 43 451 21.5 451L0 451Z"
        fill="#ad5492">
    
        <animate
            repeatCount="indefinite"
            attributeName="d"
            dur="11s"
            values="
                M0 383L21.5 382C43 381 86 379 128.8 379.7C171.7 380.3 214.3 383.7 257.2 377.5C300 371.3 343 355.7 385.8 353.3C428.7 351 471.3 362 514.2 366.5C557 371 600 369 642.8 371.5C685.7 374 728.3 381 771.2 384.2C814 387.3 857 386.7 878.5 386.3L900 386L900 451L878.5 451C857 451 814 451 771.2 451C728.3 451 685.7 451 642.8 451C600 451 557 451 514.2 451C471.3 451 428.7 451 385.8 451C343 451 300 451 257.2 451C214.3 451 171.7 451 128.8 451C86 451 43 451 21.5 451L0 451Z
                ;
                M0 359L21.5 358.3C43 357.7 86 356.3 128.8 360.8C171.7 365.3 214.3 375.7 257.2 377C300 378.3 343 370.7 385.8 366.7C428.7 362.7 471.3 362.3 514.2 360.8C557 359.3 600 356.7 642.8 355.3C685.7 354 728.3 354 771.2 353.7C814 353.3 857 352.7 878.5 352.3L900 352L900 451L878.5 451C857 451 814 451 771.2 451C728.3 451 685.7 451 642.8 451C600 451 557 451 514.2 451C471.3 451 428.7 451 385.8 451C343 451 300 451 257.2 451C214.3 451 171.7 451 128.8 451C86 451 43 451 21.5 451L0 451Z
                ;
                M0 371L21.5 372.8C43 374.7 86 378.3 128.8 378.2C171.7 378 214.3 374 257.2 372.2C300 370.3 343 370.7 385.8 371.8C428.7 373 471.3 375 514.2 372.2C557 369.3 600 361.7 642.8 355.5C685.7 349.3 728.3 344.7 771.2 343.5C814 342.3 857 344.7 878.5 345.8L900 347L900 451L878.5 451C857 451 814 451 771.2 451C728.3 451 685.7 451 642.8 451C600 451 557 451 514.2 451C471.3 451 428.7 451 385.8 451C343 451 300 451 257.2 451C214.3 451 171.7 451 128.8 451C86 451 43 451 21.5 451L0 451Z
                ;
                M0 383L21.5 382C43 381 86 379 128.8 379.7C171.7 380.3 214.3 383.7 257.2 377.5C300 371.3 343 355.7 385.8 353.3C428.7 351 471.3 362 514.2 366.5C557 371 600 369 642.8 371.5C685.7 374 728.3 381 771.2 384.2C814 387.3 857 386.7 878.5 386.3L900 386L900 451L878.5 451C857 451 814 451 771.2 451C728.3 451 685.7 451 642.8 451C600 451 557 451 514.2 451C471.3 451 428.7 451 385.8 451C343 451 300 451 257.2 451C214.3 451 171.7 451 128.8 451C86 451 43 451 21.5 451L0 451Z
            "
        />
    </path>
    <path
        d="M0 416L21.5 415.5C43 415 86 414 128.8 413C171.7 412 214.3 411 257.2 411.5C300 412 343 414 385.8 414C428.7 414 471.3 412 514.2 412.2C557 412.3 600 414.7 642.8 415.7C685.7 416.7 728.3 416.3 771.2 414C814 411.7 857 407.3 878.5 405.2L900 403L900 451L878.5 451C857 451 814 451 771.2 451C728.3 451 685.7 451 642.8 451C600 451 557 451 514.2 451C471.3 451 428.7 451 385.8 451C343 451 300 451 257.2 451C214.3 451 171.7 451 128.8 451C86 451 43 451 21.5 451L0 451Z"
        fill="#714a9a">
    
        <animate
            repeatCount="indefinite"
            attributeName="d"
            dur="10s"
            values="
                M0 416L21.5 415.5C43 415 86 414 128.8 413C171.7 412 214.3 411 257.2 411.5C300 412 343 414 385.8 414C428.7 414 471.3 412 514.2 412.2C557 412.3 600 414.7 642.8 415.7C685.7 416.7 728.3 416.3 771.2 414C814 411.7 857 407.3 878.5 405.2L900 403L900 451L878.5 451C857 451 814 451 771.2 451C728.3 451 685.7 451 642.8 451C600 451 557 451 514.2 451C471.3 451 428.7 451 385.8 451C343 451 300 451 257.2 451C214.3 451 171.7 451 128.8 451C86 451 43 451 21.5 451L0 451Z
                ;
                M0 405L21.5 403.5C43 402 86 399 128.8 400C171.7 401 214.3 406 257.2 407.3C300 408.7 343 406.3 385.8 405.8C428.7 405.3 471.3 406.7 514.2 407.3C557 408 600 408 642.8 410.5C685.7 413 728.3 418 771.2 419.5C814 421 857 419 878.5 418L900 417L900 451L878.5 451C857 451 814 451 771.2 451C728.3 451 685.7 451 642.8 451C600 451 557 451 514.2 451C471.3 451 428.7 451 385.8 451C343 451 300 451 257.2 451C214.3 451 171.7 451 128.8 451C86 451 43 451 21.5 451L0 451Z
                ;
                M0 386L21.5 391.5C43 397 86 408 128.8 409.8C171.7 411.7 214.3 404.3 257.2 404.8C300 405.3 343 413.7 385.8 413.2C428.7 412.7 471.3 403.3 514.2 402.7C557 402 600 410 642.8 408C685.7 406 728.3 394 771.2 390C814 386 857 390 878.5 392L900 394L900 451L878.5 451C857 451 814 451 771.2 451C728.3 451 685.7 451 642.8 451C600 451 557 451 514.2 451C471.3 451 428.7 451 385.8 451C343 451 300 451 257.2 451C214.3 451 171.7 451 128.8 451C86 451 43 451 21.5 451L0 451Z
                ;
                M0 416L21.5 415.5C43 415 86 414 128.8 413C171.7 412 214.3 411 257.2 411.5C300 412 343 414 385.8 414C428.7 414 471.3 412 514.2 412.2C557 412.3 600 414.7 642.8 415.7C685.7 416.7 728.3 416.3 771.2 414C814 411.7 857 407.3 878.5 405.2L900 403L900 451L878.5 451C857 451 814 451 771.2 451C728.3 451 685.7 451 642.8 451C600 451 557 451 514.2 451C471.3 451 428.7 451 385.8 451C343 451 300 451 257.2 451C214.3 451 171.7 451 128.8 451C86 451 43 451 21.5 451L0 451Z
            "
        />
    </path>
</svg>