<svg width="1024" height="1024" viewBox="0 0 1024 1024" fill="none" xmlns="http://www.w3.org/2000/svg">
<g clip-path="url(#clip0_2_4)">
<circle cx="512" cy="512" r="512" fill="url(#paint0_linear_2_4)"/>
<circle cx="512" cy="512" r="458" fill="#282828"/>
<path fill-rule="evenodd" clip-rule="evenodd" d="M553.677 189.891L536.884 177.066C522.192 165.846 501.808 165.846 487.116 177.066L207.618 390.505C193.958 400.936 188.254 418.78 193.33 435.2L300.898 783.169C306.208 800.347 322.09 812.06 340.069 812.06H683.931C701.91 812.06 717.792 800.347 723.102 783.169L830.67 435.2C835.746 418.78 830.042 400.936 816.383 390.505L792.003 371.888L761.99 466.311L679.978 733.019C676.494 744.351 666.026 752.084 654.171 752.084H367.98C356.125 752.084 345.657 744.351 342.172 733.019L252.783 442.318C249.468 431.538 253.203 419.833 262.149 412.966L494.634 234.484C495.601 233.741 496.605 233.073 497.641 232.479L553.677 189.891Z" fill="black" fill-opacity="0.15"/>
<path fill-rule="evenodd" clip-rule="evenodd" d="M500.614 320.603C508.511 314.548 519.489 314.548 527.386 320.603L685.985 442.205C693.284 447.801 696.331 457.347 693.624 466.137L632.577 664.414C629.735 673.643 621.208 679.941 611.551 679.941H416.449C406.792 679.941 398.265 673.643 395.423 664.414L385.446 632.011H439.354C440.021 632.137 440.706 632.202 441.403 632.202H583.17C588.021 632.202 592.299 629.025 593.701 624.381L638.023 477.547C639.334 473.203 637.843 468.499 634.268 465.704L519.063 375.605C515.082 372.491 509.491 372.491 505.51 375.605L399.146 458.789L344.513 499.065L334.376 466.137C331.669 457.347 334.716 447.801 342.015 442.205L500.614 320.603Z" fill="black" fill-opacity="0.15"/>
<path fill-rule="evenodd" clip-rule="evenodd" d="M557.076 165.422L536.884 150.002C522.192 138.783 501.808 138.783 487.116 150.002L180.943 383.812C167.284 394.243 161.58 412.086 166.656 428.506L284.413 809.435C289.723 826.612 305.605 838.326 323.584 838.326H700.416C718.395 838.326 734.277 826.612 739.587 809.435L857.344 428.506C862.42 412.086 856.716 394.243 843.057 383.812L814.835 362.26L782.374 464.385L693.198 754.394C689.713 765.725 679.245 773.458 667.39 773.458H354.61C342.755 773.458 332.287 765.725 328.802 754.394L231.196 436.971C227.882 426.191 231.616 414.487 240.562 407.619L494.558 212.623C495.579 211.839 496.643 211.137 497.739 210.518L557.076 165.422Z" fill="url(#paint1_linear_2_4)"/>
<path fill-rule="evenodd" clip-rule="evenodd" d="M500.614 284.264C508.511 278.209 519.489 278.209 527.386 284.264L716.797 429.49C724.096 435.086 727.143 444.632 724.437 453.422L651.62 689.924C648.778 699.153 640.251 705.451 630.594 705.451H397.406C387.749 705.451 379.222 699.153 376.38 689.924L363.934 649.5H425.676C426.393 649.647 427.134 649.724 427.888 649.724H596.112C600.963 649.724 605.241 646.546 606.643 641.903L659.141 467.982C660.452 463.638 658.961 458.934 655.386 456.139L518.777 349.3C514.795 346.186 509.205 346.186 505.223 349.3L379.925 447.292L316.151 494.307L303.563 453.422C300.857 444.632 303.904 435.086 311.203 429.49L500.614 284.264Z" fill="url(#paint2_linear_2_4)"/>
</g>
<defs>
<linearGradient id="paint0_linear_2_4" x1="0" y1="0" x2="1024" y2="1024" gradientUnits="userSpaceOnUse">
<stop offset="0.0899679" stop-color="white"/>
<stop offset="0.260629" stop-color="#F7DAA1"/>
<stop offset="0.483229" stop-color="#D9A79F"/>
<stop offset="0.662238" stop-color="#8E7AD0"/>
</linearGradient>
<linearGradient id="paint1_linear_2_4" x1="388.5" y1="204" x2="677.567" y2="782.938" gradientUnits="userSpaceOnUse">
<stop stop-color="#FFFDFF"/>
<stop offset="0.0805868" stop-color="#F2EAF5"/>
<stop offset="0.115316" stop-color="#EDE5EF"/>
<stop offset="0.312278" stop-color="#CDB5CD"/>
<stop offset="0.489366" stop-color="#BA9BBC"/>
<stop offset="1" stop-color="#8D7ACF"/>
</linearGradient>
<linearGradient id="paint2_linear_2_4" x1="514" y1="-145" x2="514" y2="705" gradientUnits="userSpaceOnUse">
<stop offset="0.482677" stop-color="white"/>
<stop offset="0.626619" stop-color="#F5E4C2"/>
<stop offset="0.733243" stop-color="#E5C7AD"/>
<stop offset="1" stop-color="#B790A9"/>
</linearGradient>
<clipPath id="clip0_2_4">
<rect width="1024" height="1024" fill="white"/>
</clipPath>
</defs>
</svg>
