<svg width="696" height="698" viewBox="0 0 696 698" fill="none" xmlns="http://www.w3.org/2000/svg">
<path fill-rule="evenodd" clip-rule="evenodd" d="M393.076 24.4223L372.884 9.00248C358.192 -2.21718 337.808 -2.2172 323.116 9.00246L16.9433 242.812C3.28395 253.243 -2.41995 271.086 2.656 287.506L120.413 668.435C125.723 685.612 141.605 697.326 159.584 697.326H536.416C554.395 697.326 570.277 685.612 575.587 668.435L693.344 287.506C698.42 271.086 692.716 253.243 679.057 242.812L650.835 221.26L618.374 323.385L529.198 613.394C525.713 624.725 515.245 632.458 503.39 632.458H190.61C178.755 632.458 168.287 624.725 164.802 613.394L67.1963 295.971C63.8815 285.191 67.6162 273.487 76.562 266.619L330.558 71.6226C331.579 70.8386 332.643 70.1371 333.739 69.5183L393.076 24.4223Z" fill="url(#paint0_linear_2_36)"/>
<path fill-rule="evenodd" clip-rule="evenodd" d="M336.614 143.264C344.511 137.209 355.489 137.209 363.386 143.264L552.797 288.49C560.096 294.086 563.143 303.632 560.437 312.422L487.62 548.924C484.778 558.153 476.251 564.451 466.594 564.451H233.406C223.749 564.451 215.222 558.153 212.38 548.924L199.934 508.5H261.676C262.393 508.647 263.134 508.724 263.888 508.724H432.112C436.963 508.724 441.241 505.546 442.643 500.903L495.141 326.982C496.452 322.638 494.961 317.934 491.386 315.139L354.777 208.3C350.795 205.186 345.205 205.186 341.223 208.3L215.925 306.292L152.151 353.307L139.563 312.422C136.857 303.632 139.904 294.086 147.203 288.49L336.614 143.264Z" fill="url(#paint1_linear_2_36)"/>
<defs>
<linearGradient id="paint0_linear_2_36" x1="224.5" y1="63" x2="513.567" y2="641.938" gradientUnits="userSpaceOnUse">
<stop stop-color="#FFFDFF"/>
<stop offset="0.0805868" stop-color="#F2EAF5"/>
<stop offset="0.115316" stop-color="#EDE5EF"/>
<stop offset="0.312278" stop-color="#CDB5CD"/>
<stop offset="0.489366" stop-color="#BA9BBC"/>
<stop offset="1" stop-color="#8D7ACF"/>
</linearGradient>
<linearGradient id="paint1_linear_2_36" x1="350" y1="-286" x2="350" y2="564" gradientUnits="userSpaceOnUse">
<stop offset="0.482677" stop-color="white"/>
<stop offset="0.626619" stop-color="#F5E4C2"/>
<stop offset="0.733243" stop-color="#E5C7AD"/>
<stop offset="1" stop-color="#B790A9"/>
</linearGradient>
</defs>
</svg>
