<svg class="waves" viewBox="0 0 900 450" width="900" height="450" preserveAspectRatio="none" xmlns="http://www.w3.org/2000/svg"
    xmlns:xlink="http://www.w3.org/1999/xlink" version="1.1">
    <!-- specify the d value if the browser doesn't support <animate> for some reason -->
    <path
        d="M0 182L21.5 183.2C43 184.3 86 186.7 128.8 188C171.7 189.3 214.3 189.7 257.2 195.3C300 201 343 212 385.8 210C428.7 208 471.3 193 514.2 189.8C557 186.7 600 195.3 642.8 204C685.7 212.7 728.3 221.3 771.2 226.2C814 231 857 232 878.5 232.5L900 233L900 451L878.5 451C857 451 814 451 771.2 451C728.3 451 685.7 451 642.8 451C600 451 557 451 514.2 451C471.3 451 428.7 451 385.8 451C343 451 300 451 257.2 451C214.3 451 171.7 451 128.8 451C86 451 43 451 21.5 451L0 451Z"
        fill="#f4d48e">
    
        <animate
            repeatCount="indefinite"
            attributeName="d"
            dur="20s"
            values="
                M0 182L21.5 183.2C43 184.3 86 186.7 128.8 188C171.7 189.3 214.3 189.7 257.2 195.3C300 201 343 212 385.8 210C428.7 208 471.3 193 514.2 189.8C557 186.7 600 195.3 642.8 204C685.7 212.7 728.3 221.3 771.2 226.2C814 231 857 232 878.5 232.5L900 233L900 451L878.5 451C857 451 814 451 771.2 451C728.3 451 685.7 451 642.8 451C600 451 557 451 514.2 451C471.3 451 428.7 451 385.8 451C343 451 300 451 257.2 451C214.3 451 171.7 451 128.8 451C86 451 43 451 21.5 451L0 451Z
                ;
                M0 186L21.5 191.7C43 197.3 86 208.7 128.8 211.7C171.7 214.7 214.3 209.3 257.2 205.7C300 202 343 200 385.8 196.7C428.7 193.3 471.3 188.7 514.2 184.3C557 180 600 176 642.8 181C685.7 186 728.3 200 771.2 201.7C814 203.3 857 192.7 878.5 187.3L900 182L900 451L878.5 451C857 451 814 451 771.2 451C728.3 451 685.7 451 642.8 451C600 451 557 451 514.2 451C471.3 451 428.7 451 385.8 451C343 451 300 451 257.2 451C214.3 451 171.7 451 128.8 451C86 451 43 451 21.5 451L0 451Z
                ;
                M0 215L21.5 214.3C43 213.7 86 212.3 128.8 208C171.7 203.7 214.3 196.3 257.2 192.8C300 189.3 343 189.7 385.8 186.7C428.7 183.7 471.3 177.3 514.2 183C557 188.7 600 206.3 642.8 213.8C685.7 221.3 728.3 218.7 771.2 214C814 209.3 857 202.7 878.5 199.3L900 196L900 451L878.5 451C857 451 814 451 771.2 451C728.3 451 685.7 451 642.8 451C600 451 557 451 514.2 451C471.3 451 428.7 451 385.8 451C343 451 300 451 257.2 451C214.3 451 171.7 451 128.8 451C86 451 43 451 21.5 451L0 451Z
                ;
                M0 182L21.5 183.2C43 184.3 86 186.7 128.8 188C171.7 189.3 214.3 189.7 257.2 195.3C300 201 343 212 385.8 210C428.7 208 471.3 193 514.2 189.8C557 186.7 600 195.3 642.8 204C685.7 212.7 728.3 221.3 771.2 226.2C814 231 857 232 878.5 232.5L900 233L900 451L878.5 451C857 451 814 451 771.2 451C728.3 451 685.7 451 642.8 451C600 451 557 451 514.2 451C471.3 451 428.7 451 385.8 451C343 451 300 451 257.2 451C214.3 451 171.7 451 128.8 451C86 451 43 451 21.5 451L0 451Z
            "
            keySplines="
                0.364212423249 0 0.635787576751 1;
                0.364212423249 0 0.635787576751 1;
                0.364212423249 0 0.635787576751 1
            "
            calcMode="spline"
        />
    </path>
    <path
        d="M0 383L21.5 382C43 381 86 379 128.8 379.7C171.7 380.3 214.3 383.7 257.2 377.5C300 371.3 343 355.7 385.8 353.3C428.7 351 471.3 362 514.2 366.5C557 371 600 369 642.8 371.5C685.7 374 728.3 381 771.2 384.2C814 387.3 857 386.7 878.5 386.3L900 386L900 451L878.5 451C857 451 814 451 771.2 451C728.3 451 685.7 451 642.8 451C600 451 557 451 514.2 451C471.3 451 428.7 451 385.8 451C343 451 300 451 257.2 451C214.3 451 171.7 451 128.8 451C86 451 43 451 21.5 451L0 451Z"
        fill="#f5ae7d">
    
        <animate
            repeatCount="indefinite"
            attributeName="d"
            dur="11s"
            values="
                M0 383L21.5 382C43 381 86 379 128.8 379.7C171.7 380.3 214.3 383.7 257.2 377.5C300 371.3 343 355.7 385.8 353.3C428.7 351 471.3 362 514.2 366.5C557 371 600 369 642.8 371.5C685.7 374 728.3 381 771.2 384.2C814 387.3 857 386.7 878.5 386.3L900 386L900 451L878.5 451C857 451 814 451 771.2 451C728.3 451 685.7 451 642.8 451C600 451 557 451 514.2 451C471.3 451 428.7 451 385.8 451C343 451 300 451 257.2 451C214.3 451 171.7 451 128.8 451C86 451 43 451 21.5 451L0 451Z
                ;
                M0 359L21.5 358.3C43 357.7 86 356.3 128.8 360.8C171.7 365.3 214.3 375.7 257.2 377C300 378.3 343 370.7 385.8 366.7C428.7 362.7 471.3 362.3 514.2 360.8C557 359.3 600 356.7 642.8 355.3C685.7 354 728.3 354 771.2 353.7C814 353.3 857 352.7 878.5 352.3L900 352L900 451L878.5 451C857 451 814 451 771.2 451C728.3 451 685.7 451 642.8 451C600 451 557 451 514.2 451C471.3 451 428.7 451 385.8 451C343 451 300 451 257.2 451C214.3 451 171.7 451 128.8 451C86 451 43 451 21.5 451L0 451Z
                ;
                M0 371L21.5 372.8C43 374.7 86 378.3 128.8 378.2C171.7 378 214.3 374 257.2 372.2C300 370.3 343 370.7 385.8 371.8C428.7 373 471.3 375 514.2 372.2C557 369.3 600 361.7 642.8 355.5C685.7 349.3 728.3 344.7 771.2 343.5C814 342.3 857 344.7 878.5 345.8L900 347L900 451L878.5 451C857 451 814 451 771.2 451C728.3 451 685.7 451 642.8 451C600 451 557 451 514.2 451C471.3 451 428.7 451 385.8 451C343 451 300 451 257.2 451C214.3 451 171.7 451 128.8 451C86 451 43 451 21.5 451L0 451Z
                ;
                M0 383L21.5 382C43 381 86 379 128.8 379.7C171.7 380.3 214.3 383.7 257.2 377.5C300 371.3 343 355.7 385.8 353.3C428.7 351 471.3 362 514.2 366.5C557 371 600 369 642.8 371.5C685.7 374 728.3 381 771.2 384.2C814 387.3 857 386.7 878.5 386.3L900 386L900 451L878.5 451C857 451 814 451 771.2 451C728.3 451 685.7 451 642.8 451C600 451 557 451 514.2 451C471.3 451 428.7 451 385.8 451C343 451 300 451 257.2 451C214.3 451 171.7 451 128.8 451C86 451 43 451 21.5 451L0 451Z
            "
            keySplines="
                0.364212423249 0 0.635787576751 1;
                0.364212423249 0 0.635787576751 1;
                0.364212423249 0 0.635787576751 1
            "
            calcMode="spline"
        />
    </path>
</svg>